<svg id="Слой_1" data-name="Слой 1" xmlns="http://www.w3.org/2000/svg" viewBox="0 0 14 18"><defs><style>.cls-1{fill:#fff;}</style></defs><title>User</title><path class="cls-1" d="M11.75,10.69A5.49,5.49,0,0,0,10.23,9.5a5.19,5.19,0,0,0,2.11-4.2A5.36,5.36,0,0,0,6.91,0,5.47,5.47,0,0,0,1.39,5.34a5.35,5.35,0,0,0,2.24,4.3,6.55,6.55,0,0,0-1.39,1.09A8.12,8.12,0,0,0,0,17.17L.13,18H13.82l.09-.83A7.75,7.75,0,0,0,11.75,10.69ZM6.91,1.88a3.49,3.49,0,0,1,3.54,3.46A3.47,3.47,0,0,1,6.91,8.76a3.44,3.44,0,1,1,0-6.88Zm5.16,14.24H2c0-1.45.14-2.46,1.75-4.16A4.25,4.25,0,0,1,7,10.64,4.29,4.29,0,0,1,10.36,12,5,5,0,0,1,12.07,16.12Z" transform="translate(0)"/></svg>